HIERARCHY
ROOT Hips
{
    OFFSET 0.000000 0.000000 0.000000
    CHANNELS 6 Xposition Yposition Zposition Zrotation Xrotation Yrotation
    JOINT Spine
    {
        OFFSET -0.000000 7.236184 0.000000
        CHANNELS 3 Zrotation Xrotation Yrotation
        JOINT Spine1
        {
            OFFSET -0.000000 20.420147 0.000000
            CHANNELS 3 Zrotation Xrotation Yrotation
            JOINT Neck
            {
                OFFSET -0.000000 20.336288 1.848754
                CHANNELS 3 Zrotation Xrotation Yrotation
                JOINT Head
                {
                    OFFSET -0.000000 12.354461 -1.764923
                    CHANNELS 3 Zrotation Xrotation Yrotation
                    End Site
                    {
                        OFFSET -0.000000 22.061537 0.000000
                    }
                }
            }
            JOINT LeftShoulder
            {
                OFFSET 3.573296 18.396038 -0.314103
                CHANNELS 3 Zrotation Xrotation Yrotation
                JOINT LeftArm
                {
                    OFFSET 10.880760 0.000000 0.000000
                    CHANNELS 3 Zrotation Xrotation Yrotation
                    JOINT LeftForeArm
                    {
                        OFFSET 27.185530 0.000000 0.000000
                        CHANNELS 3 Zrotation Xrotation Yrotation
                        JOINT LeftHand
                        {
                            OFFSET 27.825975 0.000000 0.000000
                            CHANNELS 3 Zrotation Xrotation Yrotation
                            End Site
                            {
                                OFFSET 13.236923 0.000000 0.000000
                            }
                        }
                    }
                }
            }
            JOINT RightShoulder
            {
                OFFSET -3.474926 18.396038 -0.314103
                CHANNELS 3 Zrotation Xrotation Yrotation
                JOINT RightArm
                {
                    OFFSET -10.880760 0.000000 0.000000
                    CHANNELS 3 Zrotation Xrotation Yrotation
                    JOINT RightForeArm
                    {
                        OFFSET -27.185530 0.000000 0.000000
                        CHANNELS 3 Zrotation Xrotation Yrotation
                        JOINT RightHand
                        {
                            OFFSET -27.825975 0.000000 0.000000
                            CHANNELS 3 Zrotation Xrotation Yrotation
                            End Site
                            {
                                OFFSET -13.236923 0.000000 0.000000
                            }
                        }
                    }
                }
            }
        }
    }
    JOINT LeftUpLeg
    {
        OFFSET 8.824615 0.000000 0.000000
        CHANNELS 3 Zrotation Xrotation Yrotation
        JOINT LeftLeg
        {
            OFFSET -0.000000 -35.111282 0.000000
            CHANNELS 3 Zrotation Xrotation Yrotation
            JOINT LeftFoot
            {
                OFFSET -0.000000 -42.324711 0.000000
                CHANNELS 3 Zrotation Xrotation Yrotation
                JOINT LeftToeBase
                {
                    OFFSET -0.000000 -5.735999 13.236923
                    CHANNELS 3 Zrotation Xrotation Yrotation
                    End Site
                    {
                        OFFSET -0.000000 0.000000 3.529846
                    }
                }
            }
        }
    }
    JOINT RightUpLeg
    {
        OFFSET -8.824615 0.000000 0.000000
        CHANNELS 3 Zrotation Xrotation Yrotation
        JOINT RightLeg
        {
            OFFSET -0.000000 -35.111282 0.000000
            CHANNELS 3 Zrotation Xrotation Yrotation
            JOINT RightFoot
            {
                OFFSET -0.000000 -42.324711 0.000000
                CHANNELS 3 Zrotation Xrotation Yrotation
                JOINT RightToeBase
                {
                    OFFSET -0.000000 -5.735999 13.236923
                    CHANNELS 3 Zrotation Xrotation Yrotation
                    End Site
                    {
                        OFFSET -0.000000 0.000000 3.529846
                    }
                }
            }
        }
    }
}
MOTION
Frames:    11
Frame Time:    0.008333
-7.496540    84.660156    95.879242    18.538790    11.711472    -103.056252    -2.970995    -12.625129    0.618122    -2.653717    11.217012    1.207645    7.487200    22.256266    -26.852882    25.758560    -10.503399    -21.796432    1.659317    14.625315    1.081453    -41.406559    43.942207    -36.655312    15.123658    3.570143    -47.025024    46.000057    1.673987    -19.843704    0.436768    19.307678    -4.442569    46.872921    43.164612    27.090237    -23.006506    -8.230364    60.284679    -29.471527    4.441154    3.420455    14.544156    -26.236835    5.583966    -1.094949    29.373636    14.306200    0.179289    -15.740374    -7.813918    -0.550530    -0.026961    0.610272    0.265906    -22.252043    -2.625226    7.880691    21.284121    -7.703656    8.783769    7.384017    -13.984652    -0.435271    -3.271869    0.472961    
-7.464346    84.635506    95.866997    18.597712    11.727310    -103.008179    -2.996409    -12.628643    0.650776    -2.687583    11.209563    1.246343    7.535591    22.252340    -26.879423    25.814089    -10.510079    -21.807995    1.687217    14.570744    1.048581    -41.173512    43.830746    -36.737144    14.674786    3.887928    -46.847263    45.599583    1.840917    -19.861801    0.512638    19.268879    -4.478374    46.588215    43.241875    27.300674    -23.081795    -8.110158    59.960922    -29.593565    4.461039    3.625745    14.644476    -26.390619    5.609207    -1.171890    29.492548    14.331618    0.088898    -15.782067    -7.899231    -0.494591    0.009652    0.548227    0.186137    -22.169035    -2.705649    7.963506    21.102030    -7.937275    8.943981    7.313526    -13.792383    -0.456425    -3.378610    0.496023    
-7.421181    84.620316    95.864540    18.665075    11.770534    -102.975914    -3.021835    -12.613189    0.677282    -2.697549    11.194916    1.275874    7.596659    22.244293    -26.894352    25.863104    -10.513564    -21.808987    1.729017    14.501917    1.000926    -40.893990    43.712135    -36.852131    14.263173    4.168209    -46.785252    45.210617    2.013541    -19.856485    0.592308    19.213633    -4.507241    46.243465    43.286671    27.533182    -23.161768    -7.974161    59.604279    -29.720308    4.485614    3.846255    14.774424    -26.538820    5.647561    -1.248567    29.587528    14.366190    -0.008001    -15.808533    -7.991810    -0.431747    0.044500    0.478537    0.059819    -22.195717    -2.730775    8.152306    21.069637    -8.268747    9.189913    7.319577    -13.600110    -0.484028    -3.484552    0.526103    
-7.366244    84.614960    95.872078    18.741034    11.843604    -102.960777    -3.046452    -12.576242    0.696956    -2.681034    11.171502    1.295054    7.671356    22.232527    -26.896749    25.904612    -10.513670    -21.798515    1.785027    14.418720    0.936878    -40.567646    43.585526    -37.000820    13.892432    4.410112    -46.847397    44.835014    2.192658    -19.824924    0.675092    19.140518    -4.528230    45.834568    43.295986    27.788465    -23.247084    -7.820998    59.211353    -29.855349    4.515153    4.082766    14.937118    -26.682072    5.699283    -1.324496    29.660004    14.410000    -0.112508    -15.818037    -8.092598    -0.361681    0.074988    0.400856    -0.118487    -22.340080    -2.703395    8.453912    21.201488    -8.696848    9.520933    7.402669    -13.407804    -0.518415    -3.586997    0.563562    
-7.298637    84.619568    95.889641    18.826021    11.949045    -102.964348    -3.069607    -12.515451    0.709232    -2.635427    11.137651    1.303040    7.759021    22.217508    -26.885372    25.939705    -10.508874    -21.775438    1.855639    14.320212    0.854339    -40.193291    43.451050    -37.182751    13.566893    4.611517    -47.043682    44.473740    2.379103    -19.763395    0.760525    19.047747    -4.539707    45.357864    43.266216    28.065889    -23.337332    -7.649352    58.778072    -30.003828    4.549103    4.335989    15.136593    -26.821436    5.765561    -1.399911    29.712103    14.462741    -0.225210    -15.809343    -8.202113    -0.284111    0.099453    0.314871    -0.354598    -22.610476    -2.631587    8.875240    21.512522    -9.219265    9.935545    7.562478    -13.214744    -0.559406    -3.681272    0.608207    
-7.217888    84.634003    95.916962    18.920036    12.088681    -102.988068    -3.090493    -12.429091    0.713949    -2.558203    11.092051    1.299155    7.859008    22.199234    -26.859455    25.968063    -10.497882    -21.739407    1.941293    14.205843    0.751547    -39.772736    43.309364    -37.396004    13.293213    4.768973    -47.384354    44.129265    2.573323    -19.668550    0.847338    18.934797    -4.540467    44.812920    43.193268    28.363522    -23.430471    -7.459094    58.302876    -30.170563    4.585833    4.604560    15.376059    -26.957569    5.848004    -1.474849    29.746559    14.523632    -0.345636    -15.781960    -8.319858    -0.198636    0.116422    0.220135    -0.653116    -23.012981    -2.529783    9.420384    22.014956    -9.828903    10.427400    7.796541    -13.021033    -0.606812    -3.760101    0.659825    
-7.123255    84.657837    95.953629    19.023628    12.264674    -103.032906    -3.108586    -12.315584    0.711181    -2.446781    11.033457    1.283155    7.970224    22.178530    -26.818466    25.990919    -10.479924    -21.689615    2.042257    14.075002    0.626327    -39.302944    43.161354    -37.640484    13.077092    4.878101    -47.880745    43.799969    2.776065    -19.536497    0.934574    18.799969    -4.528377    44.199066    43.073711    28.678276    -23.524290    -7.250294    57.781063    -30.361509    4.622269    4.888128    15.659852    -27.092274    5.949567    -1.549719    29.766823    14.592505    -0.473956    -15.735770    -8.447227    -0.105183    0.125896    0.116565    -1.019506    -23.553308    -2.418164    10.093613    22.720362    -10.519456    10.989578    8.101584    -12.825224    -0.659945    -3.814357    0.717656    
-7.014367    84.690216    95.998932    19.137035    12.478360    -103.099144    -3.123880    -12.174013    0.701166    -2.298547    10.960916    1.255055    8.091209    22.156116    -26.762260    26.009153    -10.454295    -21.625984    2.158986    13.926505    0.476587    -38.782230    43.009853    -37.915176    12.926350    4.932515    -48.543583    43.485138    2.987571    -19.362904    1.020610    18.643044    -4.501776    43.517918    42.903709    29.006256    -23.615053    -7.024022    57.209587    -30.581970    4.654325    5.184719    15.991211    -27.227526    6.072961    -1.625013    29.777342    14.668877    -0.609577    -15.671753    -8.584887    -0.004599    0.128325    0.005097    -1.458607    -24.234102    -2.322407    10.895794    23.636866    -11.280892    11.610324    8.471840    -12.626827    -0.718127    -3.833213    0.780947    
-6.890877    84.730087    96.051979    19.260485    12.731295    -103.186226    -3.136244    -12.003741    0.684364    -2.111110    10.873911    1.215196    8.219577    22.133831    -26.691086    26.025602    -10.421082    -21.548103    2.291238    13.759468    0.299887    -38.205616    42.856796    -38.220314    12.848414    4.924582    -49.384312    43.182636    3.207847    -19.143791    1.104186    18.463123    -4.458201    42.772758    42.679222    29.341194    -23.698170    -6.781437    56.584213    -30.837244    4.677091    5.492434    16.373787    -27.365740    6.221413    -1.701265    29.783268    14.751883    -0.752077    -15.591401    -8.733781    0.103467    0.125114    -0.114664    -1.975480    -25.056175    -2.272438    11.825471    24.771391    -12.102917    12.275612    8.900085    -12.424603    -0.780057    -3.804531    0.848258    
-6.753238    84.775879    96.111450    19.393503    13.023471    -103.292038    -3.145565    -11.805463    0.661358    -1.883727    10.772956    1.164430    8.353226    22.113333    -26.606003    26.041876    -10.381205    -21.456621    2.438919    13.572857    0.094970    -37.570011    42.706455    -38.555672    12.852033    4.844569    -50.409275    42.890640    3.435452    -18.875916    1.183357    18.260494    -4.395573    41.971825    42.398026    29.674593    -23.767799    -6.525733    55.903439    -31.129948    4.684563    5.807344    16.808649    -27.509293    6.397694    -1.778176    29.790632    14.838971    -0.900202    -15.497252    -8.894118    0.217729    0.117841    -0.241294    -2.572938    -26.013414    -2.301294    12.872880    26.123186    -12.969485    12.965400    9.374537    -12.218500    -0.843601    -3.716861    0.917239    
-6.601171    84.826096    96.176300    19.536413    13.356721    -103.413994    -3.151622    -11.579091    0.632966    -1.614719    10.658319    1.103379    8.490973    22.096987    -26.508236    26.060711    -10.335999    -21.351677    2.602320    13.364700    -0.140793    -36.866173    42.561001    -38.924446    12.945147    4.680865    -51.629906    42.604107    3.669907    -18.555241    1.257041    18.034435    -4.311404    41.119305    42.056259    29.998901    -23.818016    -6.258646    55.160679    -31.463396    4.670292    6.127650    17.299334    -27.661976    6.605292    -1.855842    29.806091    14.928102    -1.053929    -15.391562    -9.067607    0.338048    0.107936    -0.374642    -3.258170    -27.102943    -2.443053    14.031191    27.697998    -13.870302    13.662317    9.884435    -12.006516    -0.907007    -3.559843    0.985952    
